<svg width="27" height="27" viewBox="0 0 27 27" fill="none" xmlns="http://www.w3.org/2000/svg">
<rect width="27.002" height="27.002" rx="5" fill="#006FEE"/>
<path fill-rule="evenodd" clip-rule="evenodd" d="M13.5011 5.83008C10.6082 5.83008 9.16171 5.83008 8.26299 6.72879C7.4475 7.5443 7.37198 8.8108 7.36499 11.1998H6.59718C6.17352 11.1998 5.83008 11.5432 5.83008 11.9669V12.734C5.83008 12.9755 5.94375 13.2028 6.13692 13.3477L7.36428 14.2682C7.37127 16.6572 7.4475 17.9237 8.26299 18.7392C8.44877 18.925 8.65796 19.0723 8.89848 19.1892V20.4049C8.89848 20.8286 9.24193 21.172 9.66558 21.172H10.8162C11.2399 21.172 11.5833 20.8286 11.5833 20.4049V19.6237C12.1411 19.6379 12.7756 19.6379 13.5011 19.6379C14.2266 19.6379 14.8611 19.6379 15.4188 19.6237V20.4049C15.4188 20.8286 15.7623 21.172 16.1859 21.172H17.3366C17.7603 21.172 18.1037 20.8286 18.1037 20.4049V19.1892C18.3443 19.0723 18.5534 18.925 18.7392 18.7392C19.5547 17.9237 19.6309 16.6572 19.6379 14.2682L20.8653 13.3477C21.0584 13.2028 21.1721 12.9755 21.1721 12.734V11.9669C21.1721 11.5432 20.8287 11.1998 20.405 11.1998H19.6372C19.6302 8.8108 19.5547 7.5443 18.7392 6.72879C17.8405 5.83008 16.394 5.83008 13.5011 5.83008ZM8.51493 11.5833C8.51493 12.6682 8.51493 13.2106 8.85195 13.5477C9.18897 13.8846 9.73139 13.8846 10.8162 13.8846H13.5011H16.1859C17.2708 13.8846 17.8132 13.8846 18.1503 13.5477C18.4872 13.2106 18.4872 12.6682 18.4872 11.5833V9.66558C18.4872 8.58074 18.4872 8.03832 18.1503 7.7013C17.8132 7.36428 17.2708 7.36428 16.1859 7.36428H13.5011H10.8162C9.73139 7.36428 9.18897 7.36428 8.85195 7.7013C8.51493 8.03832 8.51493 8.58074 8.51493 9.66558V11.5833ZM9.09026 16.5695C9.09026 16.2518 9.34784 15.9942 9.66558 15.9942H10.8162C11.134 15.9942 11.3916 16.2518 11.3916 16.5695C11.3916 16.8872 11.134 17.1448 10.8162 17.1448H9.66558C9.34784 17.1448 9.09026 16.8872 9.09026 16.5695ZM17.9119 16.5695C17.9119 16.2518 17.6543 15.9942 17.3366 15.9942H16.1859C15.8682 15.9942 15.6106 16.2518 15.6106 16.5695C15.6106 16.8872 15.8682 17.1448 16.1859 17.1448H17.3366C17.6543 17.1448 17.9119 16.8872 17.9119 16.5695Z" fill="white"/>
</svg>
