<svg width="21" height="21" viewBox="0 0 21 21" fill="none" xmlns="http://www.w3.org/2000/svg">
<path d="M7 3.5H6.30017C5.32008 3.5 4.82967 3.5 4.45532 3.69074C4.12604 3.85852 3.85852 4.12604 3.69074 4.45532C3.5 4.82967 3.5 5.32008 3.5 6.30017V7M7 3.5H14M7 3.5V1.75M14 3.5H14.7002C15.6803 3.5 16.1696 3.5 16.544 3.69074C16.8733 3.85852 17.1417 4.12604 17.3094 4.45532C17.5 4.8293 17.5 5.31912 17.5 6.2973V7M14 3.5V1.75M3.5 7V14.7002C3.5 15.6803 3.5 16.1701 3.69074 16.5444C3.85852 16.8737 4.12604 17.1417 4.45532 17.3094C4.8293 17.5 5.31912 17.5 6.2973 17.5H14.7027C15.6809 17.5 16.17 17.5 16.544 17.3094C16.8733 17.1417 17.1417 16.8737 17.3094 16.5444C17.5 16.1704 17.5 15.6813 17.5 14.7031V7M3.5 7H17.5M14 14H14.0017L14.0017 14.0017L14 14.0017V14ZM10.5 14H10.5017L10.5017 14.0017L10.5 14.0017V14ZM7 14H7.00175L7.00171 14.0017L7 14.0017V14ZM14.0017 10.5V10.5017L14 10.5017V10.5H14.0017ZM10.5 10.5H10.5017L10.5017 10.5017L10.5 10.5017V10.5ZM7 10.5H7.00175L7.00171 10.5017L7 10.5017V10.5Z" stroke="white" stroke-opacity="0.5" stroke-linecap="round" stroke-linejoin="round"/>
</svg>
