<svg width="21" height="21" viewBox="0 0 21 21" fill="none" xmlns="http://www.w3.org/2000/svg">
<path d="M7.875 9.625V17.5M7.875 9.625H4.02466C3.53461 9.625 3.28983 9.625 3.10266 9.72037C2.93802 9.80426 2.80426 9.93802 2.72037 10.1027C2.625 10.2898 2.625 10.535 2.625 11.0251V17.5H7.875M7.875 9.625V4.90009C7.875 4.41004 7.875 4.16483 7.97037 3.97766C8.05426 3.81302 8.18802 3.67926 8.35266 3.59537C8.53983 3.5 8.78461 3.5 9.27466 3.5H11.7247C12.2147 3.5 12.4602 3.5 12.6474 3.59537C12.8121 3.67926 12.9454 3.81302 13.0293 3.97766C13.1247 4.16483 13.125 4.41004 13.125 4.90009V7M7.875 17.5H13.125M13.125 17.5L18.375 17.5001V8.40009C18.375 7.91004 18.3747 7.66483 18.2793 7.47766C18.1954 7.31302 18.0626 7.17926 17.8979 7.09537C17.7108 7 17.465 7 16.975 7H13.125M13.125 17.5V7" stroke="white" stroke-opacity="0.5" stroke-linecap="round" stroke-linejoin="round"/>
</svg>
