<svg width="21" height="21" viewBox="0 0 21 21" fill="none" xmlns="http://www.w3.org/2000/svg">
<path d="M6.57104 17.3265C7.72735 17.9934 9.06896 18.375 10.4997 18.375C14.8489 18.375 18.375 14.8492 18.375 10.5C18.375 6.15076 14.8492 2.625 10.5 2.625C6.15076 2.625 2.625 6.15076 2.625 10.5C2.625 11.9307 3.00654 13.2723 3.67342 14.4286L3.676 14.4331C3.74017 14.5444 3.77253 14.6005 3.78718 14.6535C3.80101 14.7035 3.80487 14.7485 3.80133 14.8002C3.79752 14.8558 3.77878 14.9135 3.74035 15.0288L3.06763 17.047L3.06678 17.0496C2.92484 17.4754 2.85387 17.6883 2.90446 17.8302C2.94857 17.9539 3.04647 18.0515 3.17017 18.0956C3.31171 18.1461 3.52366 18.0754 3.9476 17.9341L3.95288 17.9322L5.97104 17.2595C6.08595 17.2212 6.14437 17.2017 6.19989 17.1979C6.25166 17.1944 6.2963 17.1991 6.34631 17.2129C6.39947 17.2276 6.45561 17.26 6.56743 17.3245L6.57104 17.3265Z" stroke="white" stroke-opacity="0.5" stroke-linecap="round" stroke-linejoin="round"/>
</svg>
