<svg width="21" height="21" viewBox="0 0 21 21" fill="none" xmlns="http://www.w3.org/2000/svg">
<path d="M7.875 17.5C7.875 17.9832 8.26675 18.375 8.75 18.375H12.25C12.7332 18.375 13.125 17.9832 13.125 17.5V13.125L17.5 13.125C17.9832 13.125 18.375 12.7332 18.375 12.25V8.75C18.375 8.26675 17.9832 7.875 17.5 7.875H13.125L13.125 3.5C13.125 3.01675 12.7332 2.625 12.25 2.625H8.75C8.26675 2.625 7.875 3.01675 7.875 3.5V7.875H3.5C3.01675 7.875 2.625 8.26675 2.625 8.75V12.25C2.625 12.7332 3.01675 13.125 3.5 13.125H7.875V17.5Z" stroke="white" stroke-opacity="0.5" stroke-linecap="round" stroke-linejoin="round"/>
</svg>
