<svg width="21" height="21" viewBox="0 0 21 21" fill="none" xmlns="http://www.w3.org/2000/svg">
<path d="M10.5 13.125L13.125 10.5M13.125 10.5L10.5 7.875M13.125 10.5H3.5M7.875 6.34251V6.30017C7.875 5.32008 7.875 4.82967 8.06574 4.45532C8.23352 4.12604 8.50104 3.85852 8.83032 3.69074C9.20467 3.5 9.69508 3.5 10.6752 3.5H14.7002C15.6803 3.5 16.1696 3.5 16.544 3.69074C16.8733 3.85852 17.1417 4.12604 17.3094 4.45532C17.5 4.8293 17.5 5.31912 17.5 6.2973V14.7031C17.5 15.6813 17.5 16.1704 17.3094 16.5444C17.1417 16.8737 16.8733 17.1417 16.544 17.3094C16.17 17.5 15.6809 17.5 14.7027 17.5H10.6723C9.69412 17.5 9.2043 17.5 8.83032 17.3094C8.50104 17.1417 8.23352 16.8734 8.06574 16.5441C7.875 16.1698 7.875 15.6801 7.875 14.7V14.6562" stroke="white" stroke-opacity="0.5" stroke-linecap="round" stroke-linejoin="round"/>
</svg>
