<svg width="21" height="21" viewBox="0 0 21 21" fill="none" xmlns="http://www.w3.org/2000/svg">
<path d="M17.8062 7.80756L17.4858 7.6293C17.436 7.60162 17.4115 7.58773 17.3875 7.57333C17.1485 7.4302 16.9471 7.23243 16.8002 6.99583C16.7854 6.97202 16.7714 6.94705 16.7429 6.89771C16.7145 6.84843 16.7001 6.82346 16.6868 6.79873C16.555 6.55258 16.4837 6.27826 16.4794 5.99905C16.479 5.97099 16.4791 5.94231 16.48 5.88529L16.4863 5.51318C16.4963 4.91772 16.5013 4.61907 16.4176 4.35104C16.3433 4.11297 16.219 3.89369 16.0529 3.7076C15.8652 3.49724 15.6054 3.34718 15.0852 3.04742L14.6531 2.79843C14.1344 2.49951 13.8749 2.34999 13.5995 2.293C13.3559 2.24257 13.1045 2.24491 12.8617 2.29941C12.5877 2.36091 12.3315 2.51432 11.8194 2.82096L11.8165 2.82235L11.5069 3.00773C11.4579 3.03704 11.4331 3.05182 11.4086 3.06546C11.1651 3.20084 10.8933 3.2757 10.6148 3.28463C10.5868 3.28554 10.5582 3.28554 10.5011 3.28554C10.4444 3.28554 10.4146 3.28554 10.3866 3.28463C10.1076 3.27566 9.83519 3.20039 9.59132 3.06446C9.56674 3.05076 9.54243 3.03586 9.49338 3.00641L9.18181 2.81936C8.6662 2.50982 8.408 2.35481 8.13249 2.293C7.88874 2.23831 7.63645 2.23679 7.39192 2.28787C7.11581 2.34554 6.85629 2.49616 6.33726 2.7974L6.33495 2.79843L5.90825 3.04608L5.90352 3.04897C5.38916 3.3475 5.13136 3.49713 4.94523 3.70662C4.78007 3.89252 4.65661 4.11146 4.58272 4.3489C4.4992 4.6173 4.50365 4.91659 4.51372 5.51486L4.51997 5.88644C4.52091 5.94271 4.52256 5.97067 4.52215 5.99834C4.518 6.27812 4.44575 6.553 4.31353 6.79959C4.30045 6.82398 4.28636 6.84836 4.25822 6.89708C4.23006 6.94582 4.21643 6.97006 4.20183 6.99359C4.05419 7.23146 3.85187 7.43038 3.61142 7.57376C3.58763 7.58794 3.56256 7.60158 3.51331 7.62887L3.19694 7.80419C2.67057 8.09589 2.40745 8.24187 2.21599 8.44961C2.04661 8.63338 1.91866 8.85137 1.84055 9.08877C1.75227 9.35714 1.75234 9.65806 1.75371 10.2599L1.75482 10.7517C1.75618 11.3495 1.75804 11.6482 1.84653 11.9147C1.92481 12.1505 2.05183 12.3672 2.22026 12.5499C2.41064 12.7564 2.67115 12.9014 3.19353 13.192L3.50707 13.3665C3.56044 13.3962 3.58729 13.4108 3.61302 13.4263C3.85129 13.5698 4.05203 13.7682 4.19841 14.0047C4.21422 14.0302 4.2294 14.0567 4.25976 14.1098C4.28974 14.1622 4.30508 14.1883 4.31895 14.2146C4.44728 14.4576 4.516 14.7275 4.52068 15.0023C4.52119 15.032 4.52075 15.062 4.51974 15.1223L4.51372 15.4789C4.50358 16.0792 4.49917 16.3798 4.58318 16.6489C4.65751 16.887 4.78174 17.1062 4.9478 17.2923C5.13551 17.5027 5.39573 17.6527 5.91594 17.9524L6.34793 18.2014C6.86668 18.5003 7.12595 18.6496 7.40135 18.7066C7.64499 18.757 7.89656 18.7551 8.13933 18.7006C8.41371 18.639 8.6708 18.485 9.18437 18.1775L9.49397 17.9922C9.54295 17.9628 9.56775 17.9481 9.59229 17.9345C9.83578 17.7991 10.1073 17.7239 10.3858 17.7149C10.4138 17.714 10.4424 17.714 10.4995 17.714C10.5567 17.714 10.5852 17.714 10.6133 17.7149C10.8924 17.7239 11.1656 17.7994 11.4095 17.9353C11.4309 17.9473 11.4524 17.9602 11.4902 17.9829L11.8193 18.1805C12.335 18.4901 12.5926 18.6446 12.8682 18.7064C13.1119 18.7611 13.3644 18.7634 13.6089 18.7123C13.885 18.6546 14.145 18.5037 14.6637 18.2026L15.0969 17.9513C15.6116 17.6525 15.8696 17.5027 16.0558 17.2932C16.221 17.1073 16.3446 16.8884 16.4185 16.651C16.5014 16.3846 16.4964 16.0876 16.4865 15.4979L16.48 15.1134C16.4791 15.0571 16.479 15.0291 16.4794 15.0014C16.4835 14.7217 16.5546 14.4466 16.6868 14.2C16.6999 14.1756 16.7141 14.1511 16.7421 14.1025C16.7703 14.0538 16.7848 14.0295 16.7994 14.0059C16.9471 13.7681 17.1496 13.569 17.3901 13.4256C17.4136 13.4116 17.4377 13.3982 17.4858 13.3715L17.4875 13.3708L17.8038 13.1955C18.3302 12.9038 18.5938 12.7576 18.7853 12.5499C18.9547 12.3661 19.0825 12.1484 19.1606 11.911C19.2483 11.6442 19.2477 11.3451 19.2463 10.7503L19.2452 10.2479C19.2438 9.65012 19.2431 9.35147 19.1546 9.08493C19.0763 8.84912 18.9486 8.63241 18.7801 8.44974C18.5899 8.24347 18.3291 8.09835 17.8077 7.80831L17.8062 7.80756Z" stroke="white" stroke-opacity="0.5" stroke-linecap="round" stroke-linejoin="round"/>
<path d="M7.00029 10.5C7.00029 12.433 8.56729 14 10.5003 14C12.4333 14 14.0003 12.433 14.0003 10.5C14.0003 8.56697 12.4333 6.99997 10.5003 6.99997C8.56729 6.99997 7.00029 8.56697 7.00029 10.5Z" stroke="white" stroke-opacity="0.5" stroke-linecap="round" stroke-linejoin="round"/>
</svg>
