<svg width="21" height="21" viewBox="0 0 21 21" fill="none" xmlns="http://www.w3.org/2000/svg">
<path d="M10.5 7.87505V11.3751M3.83154 13.2999C3.03579 14.6782 2.63803 15.3676 2.69746 15.9331C2.7493 16.4263 3.00818 16.8744 3.40942 17.1659C3.86928 17.5001 4.66454 17.5001 6.25497 17.5001H14.745C16.3355 17.5001 17.1306 17.5001 17.5905 17.1659C17.9917 16.8744 18.2507 16.4263 18.3025 15.9331C18.362 15.3676 17.9643 14.6782 17.1686 13.2999L12.925 5.94988C12.1293 4.57159 11.7312 3.88257 11.2118 3.6513C10.7587 3.44957 10.241 3.44957 9.78792 3.6513C9.26868 3.88247 8.87087 4.5715 8.07578 5.94864L3.83154 13.2999ZM10.5444 14.0001V14.0875L10.4564 14.0877V14.0001H10.5444Z" stroke="white" stroke-opacity="0.5" stroke-linecap="round" stroke-linejoin="round"/>
</svg>
