<svg width="162" height="39" viewBox="0 0 162 39" fill="none" xmlns="http://www.w3.org/2000/svg">
<path fill-rule="evenodd" clip-rule="evenodd" d="M16.9999 5.33313C12.6001 5.33313 10.4003 5.33313 9.03342 6.69996C7.79315 7.94025 7.6783 9.86645 7.66767 13.4998H6.49992C5.85559 13.4998 5.33325 14.0221 5.33325 14.6665V15.8331C5.33325 16.2004 5.50614 16.5461 5.79992 16.7665L7.66659 18.1665C7.67721 21.7998 7.79315 23.726 9.03342 24.9663C9.31596 25.2488 9.63411 25.4729 9.99992 25.6507V27.4997C9.99992 28.144 10.5223 28.6663 11.1666 28.6663H12.9166C13.5609 28.6663 14.0833 28.144 14.0833 27.4997V26.3115C14.9315 26.3331 15.8965 26.3331 16.9999 26.3331C18.1034 26.3331 19.0683 26.3331 19.9166 26.3115V27.4997C19.9166 28.144 20.4389 28.6663 21.0833 28.6663H22.8333C23.4776 28.6663 23.9999 28.144 23.9999 27.4997V25.6507C24.3658 25.4729 24.6838 25.2488 24.9664 24.9663C26.2067 23.726 26.3226 21.7998 26.3333 18.1665L28.1999 16.7665C28.4937 16.5461 28.6666 16.2004 28.6666 15.8331V14.6665C28.6666 14.0221 28.1443 13.4998 27.4999 13.4998H26.3322C26.3216 9.86645 26.2067 7.94025 24.9664 6.69996C23.5996 5.33313 21.3997 5.33313 16.9999 5.33313ZM9.41658 14.0831C9.41658 15.733 9.41659 16.558 9.92915 17.0706C10.4417 17.5831 11.2667 17.5831 12.9166 17.5831H16.9999H21.0833C22.7332 17.5831 23.5581 17.5831 24.0707 17.0706C24.5833 16.558 24.5833 15.733 24.5833 14.0831V11.1665C24.5833 9.51655 24.5833 8.69159 24.0707 8.17903C23.5581 7.66646 22.7332 7.66646 21.0833 7.66646H16.9999H12.9166C11.2667 7.66646 10.4417 7.66646 9.92915 8.17903C9.41659 8.69159 9.41658 9.51655 9.41658 11.1665V14.0831ZM10.2916 21.6665C10.2916 21.1832 10.6833 20.7915 11.1666 20.7915H12.9166C13.3998 20.7915 13.7916 21.1832 13.7916 21.6665C13.7916 22.1497 13.3998 22.5415 12.9166 22.5415H11.1666C10.6833 22.5415 10.2916 22.1497 10.2916 21.6665ZM23.7083 21.6665C23.7083 21.1832 23.3165 20.7915 22.8333 20.7915H21.0833C20.6 20.7915 20.2083 21.1832 20.2083 21.6665C20.2083 22.1497 20.6 22.5415 21.0833 22.5415H22.8333C23.3165 22.5415 23.7083 22.1497 23.7083 21.6665Z" fill="#006FEE"/>
<path d="M37.4502 25V9.5957H41.2852V15.3643H47.9238V9.5957H51.748V25H47.9238V18.8877H41.2852V25H37.4502ZM59.2127 25.3115C58.4035 25.3115 57.6408 25.1719 56.9247 24.8926C56.2085 24.6133 55.5855 24.223 55.0555 23.7217C54.5327 23.2204 54.1174 22.5973 53.8094 21.8525C53.5086 21.1077 53.3583 20.2949 53.3583 19.4141C53.3583 18.5332 53.5086 17.7204 53.8094 16.9756C54.1174 16.2308 54.5327 15.6077 55.0555 15.1064C55.5855 14.6051 56.2085 14.2148 56.9247 13.9355C57.6408 13.6562 58.4035 13.5166 59.2127 13.5166C60.3013 13.5166 61.2788 13.7493 62.1454 14.2148C63.0119 14.6732 63.6994 15.3464 64.2079 16.2344C64.7235 17.1224 64.9813 18.1536 64.9813 19.3281L64.9383 20.5527H57.0106C57.1538 21.1543 57.4152 21.6198 57.7948 21.9492C58.1815 22.2786 58.6542 22.4434 59.2127 22.4434C60.0077 22.4434 60.6092 22.1533 61.0174 21.5732H64.7557C64.5838 22.0531 64.3404 22.5114 64.0252 22.9482C63.7173 23.3779 63.3377 23.7754 62.8866 24.1406C62.4354 24.4987 61.8911 24.7852 61.2538 25C60.6236 25.2077 59.9432 25.3115 59.2127 25.3115ZM57.0858 18.0068H61.286C60.9351 16.9183 60.244 16.374 59.2127 16.374C58.6971 16.374 58.2531 16.5173 57.8807 16.8037C57.5155 17.0902 57.2505 17.4912 57.0858 18.0068ZM74.6159 11.5615C73.9714 12.1917 73.0476 12.5068 71.8444 12.5068C70.6413 12.5068 69.7139 12.1917 69.0622 11.5615C68.4105 10.9313 68.0739 10.0576 68.0525 8.94043H70.5232C70.5232 9.3916 70.6521 9.73177 70.9099 9.96094C71.1677 10.1901 71.4792 10.3047 71.8444 10.3047C72.2097 10.3047 72.5212 10.1901 72.779 9.96094C73.0368 9.73177 73.1657 9.3916 73.1657 8.94043H75.6257C75.6042 10.0576 75.2676 10.9313 74.6159 11.5615ZM77.4519 13.8281V25H73.8425V19.2852H73.7566L69.8786 25H66.2693V13.8281H69.8786V19.543H69.9753L73.8425 13.8281H77.4519ZM86.3238 13.5166C87.8134 13.5166 88.9771 14.043 89.815 15.0957C90.6529 16.1413 91.0718 17.5807 91.0718 19.4141C91.0718 21.2474 90.6529 22.6904 89.815 23.7432C88.9771 24.7887 87.8134 25.3115 86.3238 25.3115C84.9273 25.3115 83.7994 24.8281 82.94 23.8613H82.8433V29.4043H79.234V13.8281H82.8433V14.9668H82.94C83.7994 14 84.9273 13.5166 86.3238 13.5166ZM83.4341 21.2939C83.8925 21.7666 84.4582 22.0029 85.1314 22.0029C85.8046 22.0029 86.3596 21.7666 86.7965 21.2939C87.2405 20.8141 87.4625 20.1875 87.4625 19.4141C87.4625 18.6335 87.2405 18.0068 86.7965 17.5342C86.3596 17.0544 85.8046 16.8145 85.1314 16.8145C84.4582 16.8145 83.8925 17.0544 83.4341 17.5342C82.983 18.014 82.7574 18.6406 82.7574 19.4141C82.7574 20.1875 82.983 20.8141 83.4341 21.2939ZM102.296 23.7109C101.186 24.778 99.7468 25.3115 97.978 25.3115C96.2091 25.3115 94.7696 24.778 93.6596 23.7109C92.5496 22.6439 91.9946 21.2116 91.9946 19.4141C91.9946 17.6165 92.5496 16.1842 93.6596 15.1172C94.7696 14.0501 96.2091 13.5166 97.978 13.5166C99.7468 13.5166 101.186 14.0501 102.296 15.1172C103.414 16.1842 103.972 17.6165 103.972 19.4141C103.972 21.2116 103.414 22.6439 102.296 23.7109ZM96.2699 21.3154C96.7211 21.7738 97.2905 22.0029 97.978 22.0029C98.6655 22.0029 99.2348 21.7738 99.686 21.3154C100.137 20.8571 100.363 20.2233 100.363 19.4141C100.363 18.6048 100.137 17.971 99.686 17.5127C99.2348 17.0472 98.6655 16.8145 97.978 16.8145C97.2905 16.8145 96.7211 17.0472 96.2699 17.5127C95.8259 17.971 95.6039 18.6048 95.6039 19.4141C95.6039 20.2233 95.8259 20.8571 96.2699 21.3154ZM110.932 25.3115C109.048 25.3115 107.573 24.7386 106.506 23.5928C105.439 22.4398 104.906 20.7819 104.906 18.6191C104.906 15.9193 105.45 13.8496 106.538 12.4102C107.627 10.9635 109.238 10.0719 111.372 9.73535L115.906 9.02637V12.5928L111.372 13.291C110.656 13.4056 110.08 13.667 109.643 14.0752C109.206 14.4834 108.887 14.9704 108.687 15.5361H108.773C109.503 14.863 110.474 14.5264 111.684 14.5264C112.343 14.5264 112.98 14.6517 113.596 14.9023C114.219 15.1458 114.778 15.4896 115.272 15.9336C115.766 16.3776 116.163 16.9469 116.464 17.6416C116.765 18.3291 116.915 19.0811 116.915 19.8975C116.915 21.5589 116.36 22.8766 115.25 23.8506C114.14 24.8245 112.701 25.3115 110.932 25.3115ZM109.235 21.4336C109.686 21.8132 110.252 22.0029 110.932 22.0029C111.612 22.0029 112.178 21.8132 112.629 21.4336C113.08 21.054 113.306 20.542 113.306 19.8975C113.306 19.2529 113.08 18.7409 112.629 18.3613C112.178 17.9746 111.612 17.7812 110.932 17.7812C110.252 17.7812 109.686 17.9746 109.235 18.3613C108.783 18.7409 108.558 19.2529 108.558 19.8975C108.558 20.542 108.783 21.054 109.235 21.4336ZM118.3 29.4043V26.0957H120.148C120.878 26.0957 121.376 25.7448 121.641 25.043L121.662 24.9785L116.721 13.8281H120.588L123.36 20.252H123.488L125.959 13.8281H129.74L124.81 26.2354C124.48 27.0804 124.129 27.7214 123.757 28.1582C123.392 28.6022 122.93 28.9209 122.371 29.1143C121.813 29.3076 121.071 29.4043 120.148 29.4043H118.3ZM135.497 25.3115C133.735 25.3115 132.317 24.7852 131.243 23.7324C130.176 22.6797 129.643 21.2402 129.643 19.4141C129.643 17.5879 130.176 16.1484 131.243 15.0957C132.317 14.043 133.735 13.5166 135.497 13.5166C136.185 13.5166 136.833 13.6061 137.441 13.7852C138.057 13.957 138.634 14.222 139.171 14.5801C139.715 14.9382 140.177 15.4287 140.557 16.0518C140.936 16.6676 141.201 17.391 141.352 18.2217H137.613C137.184 17.2835 136.478 16.8145 135.497 16.8145C134.802 16.8145 134.255 17.0436 133.854 17.502C133.452 17.9531 133.252 18.5905 133.252 19.4141C133.252 20.2376 133.452 20.875 133.854 21.3262C134.255 21.7773 134.802 22.0029 135.497 22.0029C136.478 22.0029 137.184 21.5339 137.613 20.5957H141.352C141.201 21.4264 140.936 22.1533 140.557 22.7764C140.177 23.3923 139.715 23.8828 139.171 24.248C138.634 24.6061 138.057 24.8711 137.441 25.043C136.833 25.222 136.185 25.3115 135.497 25.3115Z" fill="white"/>
</svg>
