<svg width="113" height="20" viewBox="0 0 113 20" fill="none" xmlns="http://www.w3.org/2000/svg">
<path d="M7.49023 19V4.95898H0.774414V0.794922H18.7256V4.95898H12.0098V19H7.49023ZM24.5514 4.14648C24.0944 4.51888 23.4935 4.70508 22.7487 4.70508C22.0039 4.70508 21.3987 4.51888 20.9333 4.14648C20.4762 3.76562 20.2477 3.25781 20.2477 2.62305C20.2477 1.98828 20.4762 1.4847 20.9333 1.1123C21.3987 0.731445 22.0039 0.541016 22.7487 0.541016C23.4935 0.541016 24.0944 0.731445 24.5514 1.1123C25.0169 1.4847 25.2497 1.98828 25.2497 2.62305C25.2497 3.25781 25.0169 3.76562 24.5514 4.14648ZM20.6159 19V5.79688H24.8815V19H20.6159ZM27.3431 19V5.79688H31.6087V7.14258H31.7229C32.2138 6.65169 32.8105 6.24544 33.513 5.92383C34.2155 5.59375 34.9687 5.42871 35.7728 5.42871C36.6276 5.42871 37.3893 5.62337 38.0579 6.0127C38.7265 6.40202 39.2301 6.93522 39.5686 7.6123H39.6702C40.3388 6.85059 41.1175 6.29622 42.0061 5.94922C42.8948 5.60221 43.7623 5.42871 44.6087 5.42871C46.0475 5.42871 47.2408 5.9196 48.1888 6.90137C49.1367 7.88314 49.6106 9.30078 49.6106 11.1543V19H45.345V11.9795C45.345 11.4886 45.2731 11.0654 45.1292 10.71C44.9938 10.346 44.8076 10.0752 44.5706 9.89746C44.3421 9.71126 44.1051 9.58008 43.8597 9.50391C43.6227 9.41927 43.373 9.37695 43.1106 9.37695C42.4505 9.37695 41.8665 9.63509 41.3587 10.1514C40.8593 10.6592 40.6097 11.4251 40.6097 12.4492V19H36.344V11.9795C36.344 11.4886 36.2721 11.0654 36.1282 10.71C35.9928 10.346 35.8066 10.0752 35.5696 9.89746C35.3411 9.71126 35.1041 9.58008 34.8587 9.50391C34.6217 9.41927 34.372 9.37695 34.1097 9.37695C33.4495 9.37695 32.8655 9.63509 32.3577 10.1514C31.8584 10.6592 31.6087 11.4251 31.6087 12.4492V19H27.3431ZM57.9501 19.3682C56.9938 19.3682 56.0924 19.2031 55.246 18.873C54.3997 18.543 53.6634 18.0817 53.0371 17.4893C52.4192 16.8968 51.9283 16.1605 51.5644 15.2803C51.2089 14.4001 51.0312 13.4395 51.0312 12.3984C51.0312 11.3574 51.2089 10.3968 51.5644 9.5166C51.9283 8.63639 52.4192 7.90007 53.0371 7.30762C53.6634 6.71517 54.3997 6.25391 55.246 5.92383C56.0924 5.59375 56.9938 5.42871 57.9501 5.42871C59.2366 5.42871 60.3919 5.70378 61.416 6.25391C62.4401 6.79557 63.2526 7.59115 63.8535 8.64062C64.4628 9.6901 64.7675 10.9089 64.7675 12.2969L64.7167 13.7441H55.3476C55.5169 14.4551 55.8258 15.0052 56.2744 15.3945C56.7314 15.7839 57.29 15.9785 57.9501 15.9785C58.8896 15.9785 59.6005 15.6357 60.083 14.9502H64.5009C64.2978 15.5173 64.01 16.0589 63.6376 16.5752C63.2737 17.083 62.8251 17.5527 62.2919 17.9844C61.7587 18.4076 61.1155 18.7461 60.3623 19C59.6175 19.2454 58.8134 19.3682 57.9501 19.3682ZM55.4365 10.7354H60.4003C59.9856 9.44889 59.1689 8.80566 57.9501 8.80566C57.3408 8.80566 56.816 8.97493 56.3759 9.31348C55.9443 9.65202 55.6311 10.126 55.4365 10.7354Z" fill="white"/>
<path d="M66.6578 19V0.794922H77.3219C79.0992 0.794922 80.4872 1.19694 81.4859 2.00098C82.4846 2.80501 82.984 3.93066 82.984 5.37793C82.984 7.11296 82.2053 8.46289 80.648 9.42773V9.54199C81.5452 9.93132 82.2603 10.5322 82.7935 11.3447C83.3352 12.1572 83.606 13.0628 83.606 14.0615C83.606 15.4665 83.0813 16.6429 82.0318 17.5908C80.9824 18.5303 79.552 19 77.7408 19H66.6578ZM71.19 7.81543H76.0777C76.8902 7.81543 77.4911 7.7054 77.8805 7.48535C78.2698 7.25684 78.4644 6.84635 78.4644 6.25391C78.4644 5.66146 78.2698 5.25521 77.8805 5.03516C77.4911 4.8151 76.8902 4.70508 76.0777 4.70508H71.19V7.81543ZM71.19 15.1025H76.6998C77.5208 15.1025 78.1217 14.9544 78.5025 14.6582C78.8919 14.3535 79.0865 13.9388 79.0865 13.4141C79.0865 12.2884 78.274 11.7256 76.649 11.7256H71.19V15.1025ZM98.6614 5.79688V19H94.3957V17.6543H94.2942C93.0839 18.7969 91.717 19.3682 90.1936 19.3682C88.7548 19.3682 87.5614 18.8773 86.6135 17.8955C85.6656 16.9137 85.1916 15.4961 85.1916 13.6426V5.79688H89.4573V12.8174C89.4573 13.3083 89.525 13.7357 89.6604 14.0996C89.8043 14.4551 89.9947 14.7217 90.2317 14.8994C90.4771 15.0771 90.7268 15.2083 90.9807 15.293C91.2346 15.3691 91.5054 15.4072 91.7932 15.4072C92.5211 15.4072 93.1347 15.1576 93.634 14.6582C94.1418 14.1589 94.3957 13.3887 94.3957 12.3477V5.79688H98.6614ZM106.81 19.3682C102.494 19.3682 100.205 17.8405 99.9423 14.7852H104.309C104.648 15.5807 105.482 15.9785 106.81 15.9785C107.377 15.9954 107.83 15.932 108.169 15.7881C108.507 15.6357 108.677 15.4072 108.677 15.1025C108.677 14.891 108.554 14.7174 108.308 14.582C108.072 14.4382 107.754 14.3366 107.356 14.2773C106.967 14.2096 106.518 14.1335 106.011 14.0488C105.511 13.9642 104.995 13.8796 104.462 13.7949C103.937 13.7018 103.421 13.5537 102.913 13.3506C102.414 13.139 101.965 12.8851 101.567 12.5889C101.178 12.2926 100.861 11.8906 100.615 11.3828C100.378 10.8665 100.26 10.2699 100.26 9.59277C100.26 8.93262 100.387 8.35286 100.641 7.85352C100.903 7.3457 101.229 6.94368 101.618 6.64746C102.016 6.34277 102.49 6.09733 103.04 5.91113C103.59 5.72493 104.119 5.59798 104.627 5.53027C105.143 5.46257 105.681 5.42871 106.239 5.42871C106.891 5.42871 107.5 5.47526 108.067 5.56836C108.643 5.66146 109.197 5.81803 109.73 6.03809C110.264 6.24967 110.729 6.52051 111.127 6.85059C111.533 7.18066 111.872 7.60384 112.142 8.12012C112.413 8.62793 112.591 9.20345 112.676 9.84668H108.308C108.063 9.15267 107.352 8.80566 106.176 8.80566C105.067 8.80566 104.513 9.06803 104.513 9.59277C104.513 9.7959 104.631 9.96094 104.868 10.0879C105.113 10.2148 105.431 10.3079 105.82 10.3672C106.218 10.4264 106.671 10.4984 107.179 10.583C107.686 10.6676 108.203 10.7565 108.727 10.8496C109.252 10.9342 109.768 11.0866 110.276 11.3066C110.784 11.5182 111.233 11.7721 111.622 12.0684C112.02 12.3646 112.337 12.7751 112.574 13.2998C112.82 13.8161 112.942 14.417 112.942 15.1025C112.942 15.8135 112.811 16.4355 112.549 16.9688C112.295 17.4935 111.973 17.9082 111.584 18.2129C111.195 18.5091 110.716 18.7503 110.149 18.9365C109.582 19.1143 109.036 19.2285 108.512 19.2793C107.995 19.3385 107.428 19.3682 106.81 19.3682Z" fill="#5A59E4"/>
</svg>
